<mxfile host="65bd71144e">
    <diagram id="XFDyJ0hyyB8BprPxYJpI" name="Page-1">
        <mxGraphModel dx="1960" dy="1340" grid="1" gridSize="10" guides="1" tooltips="1" connect="1" arrows="1" fold="1" page="1" pageScale="1" pageWidth="827" pageHeight="1169" math="0" shadow="0">
            <root>
                <mxCell id="0"/>
                <mxCell id="1" parent="0"/>
                <mxCell id="14" value="&lt;div&gt;&lt;br&gt;&lt;/div&gt;&lt;br&gt;&lt;div style=&quot;color: rgb(59, 59, 59); background-color: rgb(255, 255, 255); font-family: Menlo, Consolas, &amp;quot;Courier New&amp;quot;, monospace, Consolas, &amp;quot;Courier New&amp;quot;, monospace; font-weight: normal; font-size: 14px; line-height: 19px; white-space: pre;&quot;&gt;&lt;div&gt;&lt;div style=&quot;color: rgb(59, 59, 59); line-height: 19px;&quot;&gt;&lt;div&gt;&lt;span style=&quot;color: rgb(128, 0, 0);&quot;&gt;YEAR_MIN&lt;/span&gt;&lt;span style=&quot;color: rgb(59, 59, 59);&quot;&gt;: &lt;/span&gt;&lt;span style=&quot;color: rgb(9, 134, 88);&quot;&gt;2023&lt;/span&gt;&lt;/div&gt;&lt;div&gt;&lt;span style=&quot;color: rgb(128, 0, 0);&quot;&gt;YEAR_MAX&lt;/span&gt;&lt;span style=&quot;color: rgb(59, 59, 59);&quot;&gt;: &lt;/span&gt;&lt;span style=&quot;color: rgb(9, 134, 88);&quot;&gt;2023&lt;/span&gt;&lt;/div&gt;&lt;div&gt;&lt;span style=&quot;color: rgb(128, 0, 0);&quot;&gt;MONTH_MIN&lt;/span&gt;&lt;span style=&quot;color: rgb(59, 59, 59);&quot;&gt;: &lt;/span&gt;&lt;span style=&quot;color: rgb(9, 134, 88);&quot;&gt;1&lt;/span&gt;&lt;/div&gt;&lt;div&gt;&lt;span style=&quot;color: rgb(128, 0, 0);&quot;&gt;MONTH_MAX&lt;/span&gt;&lt;span style=&quot;color: rgb(59, 59, 59);&quot;&gt;: &lt;/span&gt;&lt;span style=&quot;color: rgb(9, 134, 88);&quot;&gt;12&lt;/span&gt;&lt;/div&gt;&lt;div&gt;&lt;span style=&quot;color: rgb(128, 0, 0);&quot;&gt;DOY_MIN&lt;/span&gt;&lt;span style=&quot;color: rgb(59, 59, 59);&quot;&gt;: &lt;/span&gt;&lt;span style=&quot;color: rgb(9, 134, 88);&quot;&gt;1&lt;/span&gt;&lt;/div&gt;&lt;div&gt;&lt;span style=&quot;color: rgb(128, 0, 0);&quot;&gt;DOY_MAX&lt;/span&gt;&lt;span style=&quot;color: rgb(59, 59, 59);&quot;&gt;: &lt;/span&gt;&lt;span style=&quot;color: rgb(9, 134, 88);&quot;&gt;366&lt;/span&gt;&lt;/div&gt;&lt;div&gt;&lt;span style=&quot;color: rgb(9, 134, 88);&quot;&gt;&lt;span style=&quot;color: rgb(128, 0, 0);&quot;&gt;...&lt;/span&gt;&lt;/span&gt;&lt;/div&gt;&lt;div&gt;&lt;div style=&quot;color: rgb(59, 59, 59); line-height: 19px;&quot;&gt;&lt;span style=&quot;color: rgb(128, 0, 0);&quot;&gt;ROI&lt;/span&gt;&lt;span style=&quot;color: rgb(59, 59, 59);&quot;&gt;: &lt;/span&gt;&lt;span style=&quot;color: rgb(0, 0, 255); background-color: light-dark(rgb(255, 255, 255), rgb(18, 18, 18));&quot;&gt;path/to/my/roi&lt;/span&gt;&lt;span style=&quot;color: rgb(59, 59, 59); background-color: light-dark(rgb(255, 255, 255), rgb(18, 18, 18));&quot;&gt; &lt;/span&gt;&lt;/div&gt;&lt;/div&gt;&lt;/div&gt;&lt;/div&gt;&lt;div&gt;&lt;span style=&quot;color: rgb(128, 0, 0);&quot;&gt;...&lt;/span&gt;&lt;/div&gt;&lt;div&gt;&lt;span style=&quot;color: rgb(128, 0, 0);&quot;&gt;SENSORS: &lt;/span&gt;&lt;span style=&quot;color: rgb(0, 0, 255); background-color: light-dark(rgb(255, 255, 255), rgb(18, 18, 18));&quot;&gt;[L9, L8]&lt;/span&gt;&lt;/div&gt;&lt;div&gt;&lt;span style=&quot;background-color: light-dark(rgb(255, 255, 255), rgb(18, 18, 18)); color: rgb(128, 0, 0);&quot;&gt;MAX_CLOUD&lt;/span&gt;&lt;span style=&quot;color: rgb(59, 59, 59); background-color: light-dark(rgb(255, 255, 255), rgb(18, 18, 18));&quot;&gt;: &lt;/span&gt;&lt;span style=&quot;background-color: light-dark(rgb(255, 255, 255), rgb(18, 18, 18)); color: rgb(9, 134, 88);&quot;&gt;75&lt;/span&gt;&lt;/div&gt;&lt;div&gt;&lt;span style=&quot;color: rgb(128, 0, 0);&quot;&gt;...&lt;/span&gt;&lt;/div&gt;&lt;div&gt;&lt;span style=&quot;background-color: light-dark(rgb(255, 255, 255), rgb(18, 18, 18)); color: rgb(128, 0, 0);&quot;&gt;FEATURES&lt;/span&gt;&lt;span style=&quot;color: rgb(59, 59, 59); background-color: light-dark(rgb(255, 255, 255), rgb(18, 18, 18));&quot;&gt;: &lt;/span&gt;&lt;span style=&quot;color: rgb(0, 0, 255); background-color: light-dark(rgb(255, 255, 255), rgb(18, 18, 18));&quot;&gt;[NDVI, NBR]&lt;/span&gt;&lt;span style=&quot;background-color: light-dark(rgb(255, 255, 255), rgb(18, 18, 18)); color: rgb(63, 63, 63);&quot;&gt; &lt;/span&gt;&lt;/div&gt;&lt;div&gt;&lt;span style=&quot;color: rgb(128, 0, 0);&quot;&gt;...&lt;/span&gt;&lt;/div&gt;&lt;div&gt;&lt;div style=&quot;color: rgb(59, 59, 59); line-height: 19px;&quot;&gt;&lt;div&gt;&lt;span style=&quot;color: rgb(128, 0, 0);&quot;&gt;FOLD_CUSTOM&lt;/span&gt;&lt;span style=&quot;color: rgb(59, 59, 59);&quot;&gt;: {&lt;/span&gt;&lt;/div&gt;&lt;div&gt;&lt;span style=&quot;color: rgb(59, 59, 59);&quot;&gt;&amp;nbsp; &lt;/span&gt;&lt;span style=&quot;color: rgb(128, 0, 0);&quot;&gt;year&lt;/span&gt;&lt;span style=&quot;color: rgb(59, 59, 59);&quot;&gt;: &lt;/span&gt;&lt;span style=&quot;color: rgb(0, 0, 255);&quot;&gt;null&lt;/span&gt;&lt;span style=&quot;color: rgb(59, 59, 59);&quot;&gt;,&lt;/span&gt;&lt;/div&gt;&lt;div&gt;&lt;span style=&quot;color: rgb(59, 59, 59);&quot;&gt;&amp;nbsp; &lt;/span&gt;&lt;span style=&quot;color: rgb(128, 0, 0);&quot;&gt;month&lt;/span&gt;&lt;span style=&quot;color: rgb(59, 59, 59);&quot;&gt;: &lt;/span&gt;&lt;span style=&quot;color: rgb(0, 0, 255);&quot;&gt;[3-5, 6-8, 9-11]&lt;/span&gt;&lt;span style=&quot;color: rgb(59, 59, 59);&quot;&gt;,&lt;/span&gt;&lt;/div&gt;&lt;div&gt;&lt;span style=&quot;color: rgb(59, 59, 59);&quot;&gt;&amp;nbsp; &lt;/span&gt;&lt;span style=&quot;color: rgb(128, 0, 0);&quot;&gt;doy&lt;/span&gt;&lt;span style=&quot;color: rgb(59, 59, 59);&quot;&gt;: &lt;/span&gt;&lt;span style=&quot;color: rgb(0, 0, 255);&quot;&gt;null&lt;/span&gt;&lt;span style=&quot;color: rgb(59, 59, 59);&quot;&gt;,&lt;/span&gt;&lt;/div&gt;&lt;div&gt;&lt;span style=&quot;color: rgb(59, 59, 59);&quot;&gt;&amp;nbsp; &lt;/span&gt;&lt;span style=&quot;color: rgb(128, 0, 0);&quot;&gt;date&lt;/span&gt;&lt;span style=&quot;color: rgb(59, 59, 59);&quot;&gt;: &lt;/span&gt;&lt;span style=&quot;color: rgb(0, 0, 255);&quot;&gt;null&lt;/span&gt;&lt;/div&gt;&lt;div&gt;&lt;span style=&quot;color: rgb(59, 59, 59);&quot;&gt;}&lt;/span&gt;&lt;/div&gt;&lt;div&gt;&lt;span style=&quot;color: rgb(128, 0, 0);&quot;&gt;...&lt;/span&gt;&lt;span style=&quot;color: rgb(59, 59, 59);&quot;&gt;&lt;/span&gt;&lt;/div&gt;&lt;div&gt;&lt;div style=&quot;color: rgb(59, 59, 59); line-height: 19px;&quot;&gt;&lt;div&gt;&lt;span style=&quot;color: rgb(128, 0, 0);&quot;&gt;STM&lt;/span&gt;&lt;span style=&quot;color: rgb(59, 59, 59);&quot;&gt;: &lt;/span&gt;&lt;span style=&quot;color: rgb(0, 0, 255);&quot;&gt;[p5, p50, p95, stdDev]&lt;/span&gt;&lt;/div&gt;&lt;div&gt;&lt;span style=&quot;color: rgb(128, 0, 0);&quot;&gt;STM_BASE_IMGCOL&lt;/span&gt;&lt;span style=&quot;color: rgb(59, 59, 59);&quot;&gt;: &lt;/span&gt;&lt;span style=&quot;color: rgb(0, 0, 255);&quot;&gt;TSS&lt;/span&gt;&lt;span style=&quot;color: rgb(59, 59, 59);&quot;&gt; &lt;/span&gt;&lt;/div&gt;&lt;div&gt;&lt;span style=&quot;color: rgb(128, 0, 0);&quot;&gt;STM_FOLDING&lt;/span&gt;&lt;span style=&quot;color: rgb(59, 59, 59);&quot;&gt;: &lt;/span&gt;&lt;span style=&quot;color: rgb(0, 0, 255);&quot;&gt;true&lt;/span&gt;&lt;/div&gt;&lt;/div&gt;&lt;/div&gt;&lt;/div&gt;&lt;/div&gt;&lt;div&gt;&lt;span style=&quot;color: rgb(128, 0, 0);&quot;&gt;&lt;span style=&quot;color: rgb(128, 0, 0);&quot;&gt;...&lt;/span&gt;&lt;/span&gt;&lt;/div&gt;&lt;div&gt;&lt;span style=&quot;color: rgb(128, 0, 0);&quot;&gt;PIX_RES&lt;/span&gt;&lt;span style=&quot;color: rgb(59, 59, 59);&quot;&gt;: &lt;/span&gt;&lt;span style=&quot;color: rgb(9, 134, 88);&quot;&gt;30&lt;/span&gt;&lt;span style=&quot;color: rgb(59, 59, 59);&quot;&gt; &lt;/span&gt;&lt;/div&gt;&lt;div&gt;&lt;span style=&quot;color: rgb(128, 0, 0);&quot;&gt;CRS&lt;/span&gt;&lt;span style=&quot;color: rgb(59, 59, 59);&quot;&gt;: &lt;/span&gt;&lt;span style=&quot;color: rgb(0, 0, 255);&quot;&gt;EPSG:3035&lt;/span&gt;&lt;/div&gt;&lt;div&gt;&lt;span style=&quot;color: rgb(128, 0, 0);&quot;&gt;CRS_TRANSFORM&lt;/span&gt;&lt;span style=&quot;color: rgb(59, 59, 59);&quot;&gt;: &lt;/span&gt;&lt;span style=&quot;color: rgb(0, 0, 255);&quot;&gt;null&lt;/span&gt;&lt;span style=&quot;color: rgb(0, 128, 0);&quot;&gt;&amp;nbsp; &amp;nbsp; &amp;nbsp; &amp;nbsp;&lt;/span&gt;&lt;/div&gt;&lt;div&gt;&lt;span style=&quot;color: rgb(128, 0, 0);&quot;&gt;IMG_DIMENSIONS&lt;/span&gt;&lt;span style=&quot;color: rgb(59, 59, 59);&quot;&gt;: &lt;/span&gt;&lt;span style=&quot;color: rgb(0, 0, 255);&quot;&gt;null&lt;/span&gt;&lt;/div&gt;&lt;div&gt;&lt;span style=&quot;color: rgb(128, 0, 0);&quot;&gt;RESAMPLING_METHOD&lt;/span&gt;&lt;span style=&quot;color: rgb(59, 59, 59);&quot;&gt;: &lt;/span&gt;&lt;span style=&quot;color: rgb(0, 0, 255);&quot;&gt;bicubic&lt;/span&gt;&lt;/div&gt;&lt;div&gt;&lt;span style=&quot;color: rgb(128, 0, 0);&quot;&gt;DATATYPE&lt;/span&gt;&lt;span style=&quot;color: rgb(59, 59, 59);&quot;&gt;: &lt;/span&gt;&lt;span style=&quot;color: rgb(0, 0, 255);&quot;&gt;int16&lt;/span&gt;&lt;/div&gt;&lt;div&gt;&lt;span style=&quot;color: rgb(128, 0, 0);&quot;&gt;DATATYPE_SCALE&lt;/span&gt;&lt;span style=&quot;color: rgb(59, 59, 59);&quot;&gt;: &lt;/span&gt;&lt;span style=&quot;color: rgb(9, 134, 88);&quot;&gt;10000&lt;/span&gt;&lt;/div&gt;&lt;div&gt;&lt;span style=&quot;color: rgb(128, 0, 0);&quot;&gt;NODATA_VALUE&lt;/span&gt;&lt;span style=&quot;color: rgb(59, 59, 59);&quot;&gt;: &lt;/span&gt;&lt;span style=&quot;color: rgb(9, 134, 88);&quot;&gt;-9999&lt;/span&gt;&lt;/div&gt;&lt;/div&gt;&lt;div&gt;&lt;br&gt;&lt;/div&gt;" style="shape=note;whiteSpace=wrap;html=1;backgroundOutline=1;darkOpacity=0.05;strokeWidth=2;fontFamily=Arial;fontStyle=1;fontSize=14;align=left;verticalAlign=top;rounded=0;size=36;flipV=0;flipH=1;spacing=12;fontColor=#000000;" vertex="1" parent="1">
                    <mxGeometry x="280" y="720" width="230" height="700" as="geometry"/>
                </mxCell>
            </root>
        </mxGraphModel>
    </diagram>
</mxfile>